PathFileType	4	(X/Y/Z)	..\data\2014015\dynamic\2014015_C4_04.trc
DataRate	CameraRate	NumFrames	NumMarkers	Units	OrigDataRate	OrigDataStartFrame	OrigNumFrames
100.000000	100.000000	4	52	mm	100.000000	142	190
Frame#	Time	L_IAS			L_IPS			R_IPS			R_IAS			L_FTC			L_FLE			L_FME			L_FAX			L_TTC			L_FAL			L_TAM			L_FCC			L_FM1			L_FM2			L_FM5			R_FTC			R_FLE			R_FME			R_FAX			R_TTC			R_FAL			R_TAM			R_FCC			R_FM1			R_FM2			R_FM5			CV7			TV10			SXS			SJN			L_SIA			L_SRS			L_SAA			L_SAE			L_HLE			L_HME			L_UOA			L_RSP			L_UHE			L_HM2			L_HM5			R_SIA			R_SRS			R_SAA			R_SAE			R_HLE			R_HME			R_UOA			R_RSP			R_UHE			R_HM2			R_HM5			
		X1	Y1	Z1	X2	Y2	Z2	X3	Y3	Z3	X4	Y4	Z4	X5	Y5	Z5	X6	Y6	Z6	X7	Y7	Z7	X8	Y8	Z8	X9	Y9	Z9	X10	Y10	Z10	X11	Y11	Z11	X12	Y12	Z12	X13	Y13	Z13	X14	Y14	Z14	X15	Y15	Z15	X16	Y16	Z16	X17	Y17	Z17	X18	Y18	Z18	X19	Y19	Z19	X20	Y20	Z20	X21	Y21	Z21	X22	Y22	Z22	X23	Y23	Z23	X24	Y24	Z24	X25	Y25	Z25	X26	Y26	Z26	X27	Y27	Z27	X28	Y28	Z28	X29	Y29	Z29	X30	Y30	Z30	X31	Y31	Z31	X32	Y32	Z32	X33	Y33	Z33	X34	Y34	Z34	X35	Y35	Z35	X36	Y36	Z36	X37	Y37	Z37	X38	Y38	Z38	X39	Y39	Z39	X40	Y40	Z40	X41	Y41	Z41	X42	Y42	Z42	X43	Y43	Z43	X44	Y44	Z44	X45	Y45	Z45	X46	Y46	Z46	X47	Y47	Z47	X48	Y48	Z48	X49	Y49	Z49	X50	Y50	Z50	X51	Y51	Z51	X52	Y52	Z52	

143	1.42	1234.334838867188	837.3471679687502	-368.5191955566407	1009.313781738281	856.841735839844	-296.0022888183594	1003.359313964844	856.059265136719	-193.3986358642579	1222.612060546875	820.4346923828127	-107.5514221191407	1169.08154296875	761.9155883789064	-430.2528076171876	1247.949462890625	418.378875732422	-350.5111083984376	1235.742797851563	417.9953613281251	-209.1738281250001	1246.809204101563	361.3130798339844	-352.1602478027344	1296.83154296875	380.8097534179688	-293.7364196777344	1253.494750976563	62.74559783935548	-308.3830261230469	1269.422729492188	79.54881286621095	-220.8866424560547	1216.616821289063	23.08324813842774	-266.9116210937501	1391.148803710938	19.73169898986817	-211.9719543457032	1411.038818359375	36.81376647949219	-265.1089782714844	1373.210693359375	22.90469551086426	-328.4863586425782	1139.7041015625	734.2954711914064	-53.92242431640626	1078.376586914063	405.1118164062501	-86.3188934326172	1139.468627929688	361.6318054199219	-204.3576660156251	1046.723510742188	364.9295349121094	-82.84665679931642	1106.379150390625	322.3334350585938	-125.3007888793946	816.231140136719	178.2433624267578	-158.2299957275391	869.716491699219	161.8332214355469	-230.8000030517579	785.6363525390627	192.8565979003907	-212.5120697021485	842.9851074218752	51.24778366088869	-265.6226806640626	851.656677246094	36.8662452697754	-213.0668029785157	811.2371215820315	55.34397888183595	-159.5625610351563	1071.023559570313	1309.533081054688	-230.9291381835938	990.5039062500002	1114.045776367188	-241.3102416992188	1235.298828125	1016.10205078125	-245.7067413330079	1189.359375	1220.82763671875	-239.5542297363282	988.8752441406252	1142.649169921875	-314.1889953613282	1036.521362304688	1261.114501953125	-311.2742309570313	1074.572021484375	1263.57568359375	-376.5528869628907	1135.18994140625	1246.847290039063	-416.9523315429689	1078.4453125	984.1564941406252	-474.9774475097657	1051.887451171875	967.3366699218752	-390.655242919922	1040.900756835938	967.4719238281252	-438.6293029785157	1122.98388671875	769.1452636718752	-464.5554504394532	1058.810424804688	776.421569824219	-509.930877685547	1132.388549804688	678.2127075195314	-484.5224609375001	1046.282104492188	697.9088745117189	-517.7167968750001	995.8930664062502	1136.58154296875	-133.3430480957032	1041.488037109375	1256.555908203125	-145.9066162109375	1077.93994140625	1250.9833984375	-85.06929779052736	1157.425415039063	1237.524169921875	-61.86951065063478	1131.31005859375	965.260925292969	3.711599826812745	1069.0498046875	960.8096313476565	-78.00624847412111	1080.237548828125	948.581970214844	-21.48297882080078	1211.832153320313	769.4759521484377	-45.8447608947754	1162.285400390625	758.6960449218751	13.54256343841553	1232.904663085938	672.7003173828126	-36.36068725585938	1148.597778320313	693.9288330078126	17.02647018432618	
144	1.43	1245.280151367188	838.6232910156252	-368.7672424316407	1020.408264160156	858.5101318359377	-296.7685852050782	1014.496215820313	856.7124023437502	-193.3164062500001	1234.502197265625	820.7603759765627	-109.6822280883789	1180.135009765625	763.8826904296876	-431.2721557617189	1253.961547851563	418.6233825683595	-350.7689514160157	1240.391235351563	418.4360351562501	-209.6481475830079	1252.115966796875	361.5582580566407	-352.4722595214844	1301.90283203125	380.4179687500001	-293.3920898437501	1253.998291015625	62.84754180908205	-308.2566223144532	1269.25634765625	79.57530975341798	-220.5339660644532	1216.765258789063	23.15397453308106	-266.9720153808594	1391.056640625	19.38330268859864	-211.7118530273438	1411.550170898438	36.6986312866211	-264.8128051757813	1373.333129882813	23.18265724182129	-328.6167602539063	1152.20556640625	734.1351928710939	-54.4826011657715	1098.378173828125	404.9177551269532	-83.04137420654298	1162.15478515625	360.6011962890626	-200.1861267089844	1067.014892578125	365.6890258789063	-79.30171203613283	1126.468627929688	322.3409729003907	-121.6175842285157	833.582458496094	185.5301971435547	-157.6144256591797	887.785339355469	166.5133819580078	-229.3962097167969	804.4238891601565	201.4372863769532	-212.491439819336	854.5735473632815	55.27084350585939	-263.3658447265626	860.9941406250002	39.0550880432129	-210.8415832519532	822.1357421875002	62.01725006103517	-158.2654876708985	1081.477294921875	1310.66162109375	-231.6604461669922	1001.296569824219	1114.960327148438	-241.9237518310547	1246.453857421875	1017.845397949219	-246.0423278808594	1199.92138671875	1222.26416015625	-240.0273742675782	999.850280761719	1143.482299804688	-314.9682312011719	1047.2666015625	1262.025024414063	-312.0100097656251	1085.42822265625	1264.564575195313	-377.1933898925782	1146.256591796875	1248.016357421875	-417.4334411621095	1091.259643554688	985.1350708007815	-475.8527832031251	1064.2177734375	968.111267089844	-391.6803283691407	1053.527099609375	968.170349121094	-439.7717895507814	1137.094604492188	770.3619384765627	-465.1871948242189	1073.2119140625	777.2214965820315	-510.9270324707032	1147.5166015625	679.6203002929689	-485.2116699218751	1061.39306640625	698.5697021484376	-518.8397827148439	1006.376037597656	1137.733520507813	-133.9293212890625	1051.904541015625	1257.775634765625	-146.5835571289063	1088.30615234375	1252.43212890625	-85.58807373046876	1167.85791015625	1239.06982421875	-62.42174911499025	1141.100708007813	966.8596801757815	3.490278244018556	1078.97314453125	962.5421142578127	-78.27103424072267	1089.9775390625	950.3339843750002	-21.66201400756836	1221.35791015625	770.858093261719	-45.62759017944337	1171.55126953125	760.2913208007814	13.73928737640381	1241.746948242188	673.9371337890626	-36.06096267700196	1157.669677734375	695.5642700195314	17.24834442138672	
145	1.44	1256.02978515625	839.5454711914065	-369.0148010253907	1031.261352539063	860.1585693359377	-297.4752197265626	1025.312255859375	857.3606567382815	-193.2976989746094	1246.075317382813	820.975769042969	-111.5239410400391	1190.7509765625	765.5902099609376	-432.1817016601564	1259.31787109375	418.722869873047	-351.0836486816407	1244.945434570313	418.7758178710939	-210.1659545898438	1256.749633789063	361.6573181152344	-352.8304748535157	1306.497436523438	379.9395446777344	-293.3020629882813	1254.297729492188	62.88275146484376	-308.1259765625001	1269.036499023438	79.58152008056642	-220.2302856445313	1216.814819335938	23.15597724914551	-266.9684753417969	1390.939575195313	19.31209754943848	-211.5535125732422	1411.827270507813	36.77422332763673	-264.6197814941407	1373.313232421875	23.48148155212403	-328.6514587402344	1164.410034179688	734.1262817382814	-55.01404953002931	1118.769409179688	404.9737548828126	-79.91828918457033	1184.725341796875	360.2012023925782	-196.4889221191407	1087.7900390625	366.5425109863282	-75.94470214843751	1147.01708984375	322.7120666503907	-118.4108581542969	851.7283325195315	192.5132598876954	-157.3876190185547	906.528747558594	171.3652496337891	-228.4839630126954	823.6413574218752	209.1640777587891	-212.7958221435547	868.725036621094	59.0845069885254	-260.5371093750001	873.0618896484377	41.68788528442384	-207.9644317626954	835.5290527343752	68.98643493652345	-156.6044006347657	1091.854614257813	1311.768310546875	-232.3181304931641	1011.952209472656	1115.904541015625	-242.4999237060547	1257.4072265625	1019.433471679688	-246.2606811523438	1210.386840820313	1223.6318359375	-240.4048767089844	1010.689758300781	1144.33056640625	-315.7213745117188	1057.9345703125	1262.927856445313	-312.6876220703126	1096.217651367188	1265.505126953125	-377.7798767089844	1157.265014648438	1249.084106445313	-417.8326721191407	1104.049560546875	986.0374145507815	-476.6856689453126	1076.512817382813	968.7438964843752	-392.6794433593751	1066.109741210938	968.7627563476565	-440.885955810547	1151.30224609375	771.5344238281252	-465.8627014160157	1087.724365234375	777.9617309570315	-511.9562988281251	1162.826538085938	681.0249023437501	-486.0209350585939	1076.676391601563	699.1924438476564	-520.0377807617189	1016.722900390625	1138.891357421875	-134.4775848388672	1062.256103515625	1258.97265625	-147.1810913085938	1098.517456054688	1253.849365234375	-86.04415893554689	1178.143798828125	1240.556030273438	-62.8700637817383	1150.787719726563	968.3975219726565	3.341439962387086	1088.7880859375	964.1756591796877	-78.44300842285158	1099.631591796875	952.019226074219	-21.77060127258301	1230.840576171875	772.1948242187502	-45.32086944580079	1180.768432617188	761.8309936523439	14.02330303192139	1250.605346679688	675.1658935546876	-35.63430786132813	1166.713134765625	697.1563110351564	17.55344009399414	
146	1.45	1266.575073242188	840.1466064453127	-369.3029174804688	1041.858154296875	861.7662353515627	-298.0915527343751	1035.8271484375	858.0274658203127	-193.3521575927735	1257.302001953125	821.131042480469	-112.997787475586	1200.8896484375	767.0181884765626	-432.9653320312501	1264.094116210938	418.7000122070314	-351.4601745605469	1249.474243164063	419.0527343750001	-210.7239074707032	1260.817993164063	361.6425781250001	-353.2359008789063	1310.672485351563	379.3908691406251	-293.4641418457032	1254.44775390625	62.86609268188478	-307.9983520507813	1268.802001953125	79.56671142578126	-219.9721679687501	1216.78662109375	23.11551475524903	-266.9197692871094	1390.823852539063	19.41424942016602	-211.4745788574219	1411.929443359375	36.94858169555665	-264.5110778808594	1373.200439453125	23.74860000610352	-328.6102600097657	1176.27587890625	734.3190307617189	-55.52876281738283	1139.480712890625	405.333465576172	-76.99160003662111	1206.97412109375	360.5051269531251	-193.3562316894532	1108.90185546875	367.5208435058594	-72.85478973388673	1167.935668945313	323.4739990234376	-115.7134857177735	870.5762329101565	199.0417785644532	-157.5478973388672	925.893737792969	176.285888671875	-228.0589752197266	843.175720214844	215.8657226562501	-213.4248199462891	885.5279541015627	62.56332397460939	-257.1783752441407	888.0321044921877	44.69786453247071	-204.4698486328126	851.490905761719	75.98964691162111	-154.609130859375	1102.15283203125	1312.855346679688	-232.8995666503907	1022.471923828125	1116.881591796875	-243.0395812988282	1268.145751953125	1020.84912109375	-246.3606719970704	1220.755859375	1224.930419921875	-240.6876373291016	1021.384338378906	1145.206787109375	-316.4429321289063	1068.517333984375	1263.83447265625	-313.3063354492188	1106.936401367188	1266.408447265625	-378.3124084472657	1168.201904296875	1250.05810546875	-418.1502685546876	1116.793090820313	986.8699951171877	-477.4637451171876	1088.755004882813	969.244079589844	-393.6369628906251	1078.627807617188	969.2561645507815	-441.9547119140626	1165.59033203125	772.6729125976565	-466.5637207031251	1102.321166992188	778.6508789062502	-512.9919433593751	1178.30126953125	682.4425048828126	-486.9445800781251	1092.106323242188	699.7869262695314	-521.2843627929689	1026.938232421875	1140.056518554688	-134.9930725097657	1072.541259765625	1260.148071289063	-147.6988677978516	1108.583374023438	1255.23291015625	-86.44365692138673	1188.278442382813	1241.983032226563	-63.2120704650879	1160.364868164063	969.874206542969	3.259997367858888	1098.498291015625	965.7124023437502	-78.53948974609376	1109.193725585938	953.6343994140627	-21.81984329223633	1240.257080078125	773.4807739257815	-44.92343521118165	1189.922607421875	763.3123168945314	14.38922214508057	1259.484130859375	676.3864135742189	-35.06959915161134	1175.715087890625	698.7018432617189	17.94116973876953	
